<?xml version="1.0" standalone="no"?>
<!DOCTYPE svg PUBLIC "-//W3C//DTD SVG 20010904//EN"
 "http://www.w3.org/TR/2001/REC-SVG-20010904/DTD/svg10.dtd">
<svg version="1.0" xmlns="http://www.w3.org/2000/svg"
 width="828.000000pt" height="821.000000pt" viewBox="0 0 828.000000 821.000000"
 preserveAspectRatio="xMidYMid meet">
<metadata>
Created by potrace 1.16, written by Peter Selinger 2001-2019
</metadata>
<g transform="translate(0.000000,821.000000) scale(0.100000,-0.100000)"
fill="#000000" stroke="none">
<path d="M4073 6840 l-332 -5 -36 -35 c-207 -201 -293 -281 -307 -286 -10 -3
-18 -9 -18 -14 0 -5 -48 -50 -107 -99 -60 -49 -119 -100 -133 -113 -14 -13
-33 -26 -42 -30 -10 -4 -18 -12 -18 -17 0 -5 -37 -39 -82 -74 -46 -36 -90 -73
-99 -84 -9 -10 -47 -45 -84 -78 -90 -79 -329 -319 -368 -370 -17 -22 -49 -61
-71 -86 -42 -47 -47 -53 -106 -129 -19 -25 -41 -49 -47 -53 -7 -4 -13 -13 -13
-18 0 -10 -57 -91 -85 -120 -8 -9 -15 -20 -15 -26 0 -6 -7 -16 -15 -23 -8 -7
-15 -21 -15 -30 0 -10 -4 -20 -8 -22 -13 -5 -66 -87 -93 -143 -13 -27 -27 -52
-30 -55 -3 -3 -19 -32 -35 -65 -16 -33 -32 -62 -35 -65 -3 -3 -18 -32 -33 -65
-25 -54 -37 -81 -80 -180 -8 -16 -21 -50 -31 -75 -10 -25 -24 -60 -33 -79 -22
-52 -64 -174 -66 -196 -3 -27 -37 -127 -46 -140 -5 -5 -11 -28 -15 -50 -4 -22
-11 -53 -16 -70 -38 -128 -60 -214 -74 -299 -9 -55 -20 -107 -25 -117 -6 -10
-10 -39 -10 -64 0 -25 -5 -55 -11 -67 -6 -11 -15 -66 -20 -121 -5 -56 -14
-116 -19 -132 -6 -17 -11 -66 -11 -110 -1 -44 -8 -98 -15 -120 -8 -23 -14 -83
-14 -145 0 -58 -7 -157 -15 -220 -10 -74 -17 -224 -19 -423 -3 -274 -5 -311
-20 -319 -14 -8 -16 -43 -16 -321 0 -230 3 -316 12 -325 9 -9 662 -12 2878
-12 2460 0 2869 2 2886 14 18 14 19 29 19 314 0 251 -2 302 -15 317 -12 14
-16 65 -22 239 -4 122 -9 241 -12 266 -3 25 -8 164 -11 310 -3 146 -10 281
-15 300 -6 19 -10 73 -11 120 0 47 -5 108 -10 135 -6 28 -15 93 -20 145 -6 52
-14 97 -18 100 -5 3 -11 43 -16 90 -4 46 -12 94 -18 105 -6 11 -15 45 -19 75
-13 97 -33 184 -48 210 -8 14 -15 48 -16 75 0 28 -7 70 -13 95 -49 176 -74
252 -91 282 -6 10 -10 28 -10 40 -1 13 -7 34 -15 48 -8 14 -14 35 -15 47 0 12
-5 23 -11 25 -6 2 -15 22 -18 43 -4 23 -12 39 -19 37 -8 -1 -12 11 -12 34 0
31 -51 149 -108 249 -6 11 -34 67 -62 125 -28 58 -58 117 -68 131 -9 15 -37
59 -61 98 -24 40 -56 85 -72 102 -15 16 -40 50 -55 76 -27 47 -90 134 -104
143 -3 3 -11 13 -16 23 -16 28 -149 180 -198 225 -16 15 -47 47 -70 71 -22 24
-59 60 -80 80 -22 20 -53 48 -69 64 -17 15 -33 27 -37 27 -4 0 -30 21 -56 48
-115 111 -267 232 -293 232 -5 0 -20 15 -34 34 -14 18 -42 41 -61 50 -20 9
-36 21 -36 26 0 8 -98 85 -110 85 -3 1 -32 27 -65 58 -33 32 -72 64 -87 73
-16 8 -28 19 -28 24 0 6 -5 10 -10 10 -6 0 -32 21 -59 48 -26 26 -67 65 -91
87 l-43 39 -126 1 c-69 0 -275 -2 -458 -5z m-233 -1930 c0 -30 -7 -61 -16 -75
-15 -23 -15 -27 0 -50 9 -14 23 -25 31 -25 19 0 19 -16 0 -24 -8 -3 -15 -14
-15 -24 0 -10 -14 -26 -30 -36 -18 -10 -28 -22 -23 -29 5 -8 2 -8 -9 0 -12 11
-17 9 -26 -12 -16 -35 -29 -31 -37 11 -4 26 -2 39 7 45 9 6 4 9 -14 9 -27 0
-27 0 -13 -34 13 -31 13 -37 -1 -50 -14 -15 -14 -16 0 -16 24 0 22 -60 -1 -61
-16 -1 -16 -2 1 -6 16 -4 18 -12 13 -61 -3 -30 -12 -59 -19 -63 -10 -6 -8 -12
7 -23 11 -9 23 -16 28 -16 4 0 7 -18 7 -40 0 -30 4 -40 16 -40 10 0 14 6 10
15 -3 8 -1 15 4 15 6 0 9 -26 8 -57 -1 -36 -3 -45 -5 -25 -3 19 -10 32 -19 32
-8 0 -14 -4 -14 -10 0 -5 -9 -19 -20 -30 l-20 -20 28 -1 c15 0 21 -3 15 -6
-14 -5 -17 -50 -7 -78 5 -13 9 -14 15 -4 15 26 24 -3 32 -114 13 -182 16 -267
7 -227 l-7 35 -4 -40 c-4 -57 -1 -87 9 -94 5 -3 12 -17 16 -31 5 -18 5 -21 -3
-10 -20 29 -24 -2 -12 -97 8 -66 14 -333 17 -818 2 -396 6 -740 8 -765 5 -50
-6 -70 -32 -63 -10 2 -42 -7 -72 -21 -71 -33 -119 -34 -154 -1 l-27 25 4 747
c3 779 3 787 45 819 14 11 15 15 3 23 -8 5 -15 36 -19 82 -2 41 -10 78 -16 82
-8 6 -7 10 2 14 6 2 12 11 12 19 0 9 -4 13 -9 10 -5 -3 -11 9 -15 26 -6 33 7
52 31 43 6 -2 17 4 25 13 12 15 11 16 -4 3 -21 -16 -23 -9 -7 21 10 19 13 20
23 6 9 -12 11 -1 11 48 0 34 -2 62 -5 61 -3 -1 -20 2 -37 6 -24 5 -33 12 -33
27 0 11 5 20 10 20 6 0 10 7 10 15 0 21 20 19 21 -2 1 -17 2 -17 6 0 2 9 9 17
14 17 5 0 9 11 9 25 0 20 5 25 25 25 29 0 31 -7 11 -29 -22 -25 -25 -75 -4
-79 12 -2 19 6 24 33 3 19 13 39 22 44 9 5 13 15 9 24 -3 9 -2 19 3 22 5 3 5
18 0 35 -7 23 -5 30 6 30 9 0 14 11 14 35 0 24 -5 35 -15 35 -8 0 -15 -4 -15
-10 0 -5 -18 -10 -40 -10 -33 0 -40 3 -40 20 0 17 7 20 40 20 29 0 40 4 40 15
0 11 -11 15 -40 15 -28 0 -40 -4 -40 -14 0 -8 -5 -16 -10 -18 -10 -3 -13 -17
-19 -78 -1 -9 -7 -6 -16 11 -14 25 -18 85 -7 104 9 15 9 45 0 39 -4 -3 -8 4
-8 15 0 13 6 21 18 21 18 0 46 35 38 48 -3 4 5 9 16 9 12 1 26 7 32 13 8 9 2
11 -23 8 -31 -3 -35 0 -43 27 -11 43 -58 75 -58 39 0 -9 -6 -14 -12 -11 -7 2
-13 9 -13 14 0 19 -11 24 -57 28 -41 4 -47 2 -69 -28 -13 -18 -24 -36 -24 -42
0 -5 -8 -11 -19 -13 -11 -3 -16 0 -12 7 4 6 0 11 -9 11 -17 0 -17 1 1 67 5 17
1 22 -25 28 -18 4 -54 4 -81 0 -40 -6 -49 -11 -54 -31 -6 -24 -26 -34 -26 -13
0 5 -5 7 -11 3 -6 -3 -9 -17 -6 -30 4 -24 -9 -34 -44 -34 -10 0 -19 -7 -19
-15 0 -11 12 -15 49 -15 41 0 51 -4 66 -26 13 -20 14 -28 4 -40 -9 -11 -9 -14
1 -14 10 0 10 -3 0 -15 -7 -8 -26 -15 -42 -15 -16 0 -41 -9 -56 -20 -23 -16
-33 -18 -69 -10 -36 8 -49 7 -82 -11 -36 -19 -42 -19 -63 -5 -32 21 -63 4 -33
-18 21 -16 13 -21 -27 -17 -14 2 -18 -5 -18 -36 0 -21 6 -49 13 -63 16 -29 3
-80 -19 -80 -19 0 -18 -34 3 -73 22 -42 33 -221 21 -344 -6 -67 -5 -99 3 -115
8 -16 11 -225 10 -797 -1 -427 -3 -785 -5 -796 -3 -17 -9 -20 -52 -17 -27 2
-63 -2 -79 -9 -17 -7 -42 -14 -58 -16 l-27 -4 5 412 c3 227 8 415 10 419 2 4
4 270 4 591 0 321 0 593 1 604 3 80 1 97 -13 113 -15 16 -15 21 -1 47 8 17 25
39 38 50 19 17 22 27 18 68 -4 42 -7 47 -28 47 -21 0 -24 4 -24 39 0 22 5 43
11 46 6 4 8 13 5 20 -7 20 23 43 33 26 6 -10 17 -10 47 -2 22 6 51 11 67 11
49 0 28 19 -25 23 l-53 3 63 2 c34 1 62 7 62 12 0 6 18 10 40 10 22 0 40 5 40
11 0 6 7 17 15 25 8 9 15 33 15 55 0 35 3 39 24 39 13 0 27 -6 30 -12 5 -10 7
-10 12 0 5 11 64 18 64 8 0 -3 -37 -41 -82 -86 l-81 -81 25 -26 26 -25 7 31
c4 17 11 31 16 31 5 0 9 4 9 9 0 11 58 71 68 71 9 0 32 49 32 67 0 7 7 13 15
13 11 0 15 11 15 40 0 30 -4 40 -16 40 -14 0 -16 9 -12 51 6 62 23 83 44 54 9
-12 11 -21 4 -23 -15 -5 -13 -82 3 -84 6 -1 55 -2 107 -2 l95 -1 -3 67 -4 66
185 2 c143 0 186 -2 190 -12 3 -9 11 -6 28 10 18 17 21 25 11 31 -8 5 -14 34
-15 84 -2 58 -6 77 -17 81 -8 2 4 4 28 5 23 0 42 6 42 11 0 6 18 10 40 10 l40
0 0 -50z m650 -21 c0 -5 -4 -8 -9 -5 -11 7 -25 -25 -14 -33 4 -3 8 -12 9 -18
1 -7 2 -17 3 -21 0 -5 22 -8 49 -8 48 1 101 -26 102 -51 0 -13 61 -19 120 -14
24 2 24 2 6 -18 -28 -31 -12 -37 17 -7 24 24 34 26 107 26 l80 0 0 -105 0
-105 93 -2 c50 0 99 0 107 1 98 11 120 15 120 22 0 5 17 9 39 9 42 0 51 -13
51 -77 0 -27 -4 -33 -22 -34 -17 -1 -19 -2 -5 -6 22 -6 23 -23 1 -23 -12 0
-15 -7 -12 -24 4 -22 -17 -46 -41 -46 -11 0 -65 70 -58 76 3 3 15 1 26 -6 20
-10 21 -9 19 20 -3 36 -3 36 -65 9 -54 -23 -91 -20 -130 11 -14 11 -37 20 -50
20 -13 0 -22 4 -18 9 3 6 -11 9 -34 8 -22 -1 -35 -4 -29 -8 6 -4 2 -10 -11
-14 -13 -4 -28 -1 -37 6 -16 13 -64 -2 -64 -21 0 -14 -27 -12 -33 3 -4 9 -6 9
-6 0 -1 -6 4 -15 9 -18 17 -10 11 -58 -12 -103 -18 -32 -20 -44 -11 -50 8 -5
16 -54 22 -132 6 -69 11 -140 13 -157 2 -24 -1 -33 -12 -33 -10 0 -11 -3 -3
-8 24 -15 29 -59 21 -177 -5 -74 -5 -183 2 -285 5 -91 10 -426 10 -746 0 -376
4 -592 10 -611 6 -16 9 -72 8 -124 -3 -83 -5 -94 -20 -91 -13 2 -17 -3 -15
-20 1 -14 -4 -23 -13 -24 -8 0 -25 -2 -38 -2 -12 -1 -21 -8 -20 -14 2 -10 -20
-14 -79 -16 -70 -2 -83 0 -91 15 -18 35 -22 107 -21 346 1 133 2 256 2 272 0
17 5 33 11 37 8 6 7 8 -1 8 -8 0 -13 13 -13 29 0 16 6 32 13 34 9 4 9 7 -1 15
-11 7 -13 171 -9 908 l5 899 22 65 c21 60 50 116 50 96 0 -5 7 -3 15 4 8 7 15
16 15 21 0 5 -7 9 -15 9 -8 0 -15 4 -15 9 0 5 -8 12 -17 14 -11 3 -7 5 10 6
22 1 27 6 27 26 0 19 5 25 21 25 20 0 21 -4 17 -50 -4 -35 -1 -53 8 -61 11 -9
14 -7 14 9 0 11 6 22 13 25 10 4 10 7 0 18 -7 7 -13 30 -13 51 0 45 -16 49
-61 17 -30 -21 -59 -20 -59 3 -1 17 -39 67 -40 51 0 -18 -68 -17 -86 1 -11 11
-11 16 -1 19 6 3 2 6 -10 6 -24 1 -43 23 -25 29 8 2 8 11 1 29 -7 20 -6 30 7
44 19 21 44 25 44 8z m1077 -599 c30 0 34 -3 28 -17 -8 -20 -9 -32 -4 -53 3
-9 -4 -14 -16 -15 -11 0 -24 -10 -30 -22 -14 -33 -44 -37 -55 -7 -5 13 -14 24
-20 24 -5 0 -10 7 -10 15 0 8 -9 15 -19 15 -17 0 -19 5 -14 38 7 45 14 54 47
57 33 4 46 13 48 33 1 9 3 -2 5 -25 4 -42 5 -43 40 -43z m193 40 c0 -5 11 -10
25 -10 15 0 25 -6 25 -14 0 -9 12 -16 28 -18 23 -2 28 -8 30 -36 3 -27 -1 -35
-18 -39 -18 -5 -21 -12 -18 -47 3 -36 6 -41 26 -38 30 3 24 -18 -9 -35 -13 -7
-20 -13 -14 -13 5 0 4 -5 -3 -12 -9 -9 -16 -8 -31 6 -13 12 -27 15 -45 10 -25
-6 -38 -34 -16 -34 6 0 13 -6 16 -14 5 -14 0 -22 -49 -77 -26 -29 -25 -49 4
-49 15 0 19 -7 19 -35 0 -34 13 -47 24 -22 6 13 -3 -110 -10 -131 -2 -7 -8
-10 -14 -7 -6 4 -8 10 -5 16 7 11 -5 79 -14 79 -6 0 -22 -51 -35 -112 -4 -15
-1 -32 6 -40 7 -7 13 -35 13 -62 1 -81 40 -67 68 24 2 8 5 -23 6 -69 0 -58 -3
-89 -13 -100 -22 -26 -28 -79 -10 -89 19 -10 35 -117 21 -131 -7 -7 -6 -15 2
-25 7 -8 10 -24 6 -35 -3 -11 -1 -75 5 -143 6 -69 8 -133 3 -146 -5 -12 -5
-64 -1 -115 4 -57 4 -93 -2 -95 -6 -2 -10 -8 -10 -13 0 -6 5 -7 11 -4 14 9 9
-133 -5 -158 -8 -12 -7 -23 2 -38 8 -12 9 -18 4 -15 -14 8 -23 -65 -10 -81 12
-15 15 -334 2 -354 -4 -7 -8 -25 -9 -39 -4 -82 -6 -90 -20 -90 -8 0 -15 -4
-15 -9 0 -5 -21 -12 -46 -16 -40 -6 -48 -3 -70 18 -15 15 -26 40 -29 68 -12
91 -8 1638 5 1654 11 15 19 94 10 100 -5 3 -11 -7 -14 -22 -2 -16 -3 4 0 42 8
119 8 190 1 202 -8 13 13 76 42 123 11 19 21 43 21 52 0 9 7 21 16 26 31 17
51 122 23 122 -5 0 -9 11 -9 24 0 16 -6 26 -19 28 -15 2 -17 8 -10 26 7 19 16
22 59 22 27 0 50 -4 50 -10z m-3589 -436 c12 -15 10 -19 -11 -33 -13 -9 -33
-24 -42 -33 -10 -10 -29 -18 -43 -18 -14 0 -25 -4 -25 -9 0 -5 -13 -12 -29
-16 -16 -3 -32 -13 -35 -20 -3 -8 -12 -12 -21 -9 -8 3 -15 2 -15 -3 0 -5 -6
-17 -13 -27 -12 -16 -16 -17 -35 -5 -12 7 -25 10 -29 6 -4 -5 -1 -12 6 -16 8
-5 9 -11 3 -15 -5 -3 -15 1 -22 9 -7 8 -16 12 -22 9 -5 -3 -16 -3 -24 0 -12 5
-12 8 3 25 9 11 20 18 24 15 4 -2 10 9 14 26 6 27 9 29 38 23 18 -3 29 -2 25
2 -14 15 44 35 99 35 48 0 58 4 91 35 42 40 45 41 63 19z m4441 -422 c7 -7 15
-49 19 -94 5 -49 13 -86 21 -93 8 -6 14 -41 17 -100 1 -49 4 -91 5 -92 1 -1
18 -3 39 -5 36 -2 37 -3 37 -40 0 -21 5 -38 10 -38 6 0 10 -23 10 -52 0 -30 6
-58 14 -67 18 -21 10 -121 -10 -121 -19 0 -18 -56 1 -111 18 -50 29 -59 70
-58 29 1 29 1 5 8 -39 11 -7 22 40 15 24 -4 37 -10 30 -14 -9 -6 -9 -9 -1 -15
7 -4 18 -1 26 5 12 10 15 9 15 -9 0 -12 -6 -21 -15 -21 -8 0 -15 -9 -15 -20 0
-21 -6 -23 -58 -20 -20 1 -41 -5 -53 -16 -18 -16 -19 -16 -19 2 0 15 -7 19
-37 19 l-38 0 -3 57 c-2 32 2 67 8 78 8 15 8 20 -1 20 -12 0 -5 125 11 179 6
22 4 32 -10 44 -17 14 -18 13 -24 -15 -3 -17 -7 -90 -8 -162 l-1 -131 -6 137
c-4 96 -10 141 -20 150 -11 11 -13 -16 -9 -170 3 -113 9 -186 15 -190 6 -4 14
-41 18 -83 4 -42 11 -82 16 -90 6 -10 9 -10 9 -1 0 6 9 12 20 12 17 0 20 -7
20 -50 0 -40 -4 -52 -17 -56 -10 -3 -25 -9 -35 -14 -19 -10 -44 12 -33 30 3 5
1 10 -4 10 -6 0 -12 -8 -13 -17 0 -10 -2 -31 -4 -48 -5 -51 5 -78 25 -72 25 6
121 -86 121 -115 0 -20 1 -21 20 -3 11 10 23 15 26 12 4 -4 -1 -9 -10 -13 -13
-5 -16 -20 -16 -74 0 -38 -3 -75 -6 -84 -7 -17 -44 -22 -44 -6 0 6 -21 10 -46
10 -25 0 -43 -4 -40 -9 7 -11 -79 -23 -110 -15 -13 3 -21 10 -18 15 3 5 -4 9
-16 9 -18 0 -19 3 -10 20 7 14 7 20 0 20 -14 0 -12 48 3 52 9 4 14 70 19 259
4 140 5 275 2 300 -3 26 -2 49 3 52 5 3 7 75 6 159 -5 235 -2 343 8 346 9 4 3
331 -7 379 -3 19 0 22 16 20 11 -2 26 -9 32 -15z m-4844 -391 c15 -47 15 -91
2 -91 -5 0 -10 -18 -10 -40 l0 -40 -40 0 c-22 0 -40 5 -40 10 0 6 -7 10 -15
10 -8 0 -15 7 -15 15 0 9 6 12 15 9 10 -4 15 0 15 15 0 12 -6 21 -14 21 -10 0
-15 17 -18 58 -2 31 -3 60 -1 65 3 4 28 7 57 7 53 0 53 0 64 -39z m-86 -481
c2 -6 40 -11 85 -13 87 -2 110 -20 35 -25 -29 -2 -42 -8 -42 -18 0 -18 79 -20
81 -1 1 6 5 -4 9 -23 5 -19 6 -61 3 -93 -4 -39 -2 -66 8 -83 9 -18 10 -30 3
-42 -5 -9 -7 -37 -3 -62 3 -24 2 -60 -2 -80 -12 -49 -11 -110 1 -110 16 0 13
-179 -2 -182 -18 -3 -201 -7 -273 -5 -33 0 -80 1 -105 1 -60 1 -86 25 -71 68
8 23 7 35 -4 51 -13 18 -12 23 11 44 14 13 37 23 52 22 27 0 27 0 4 -10 -13
-5 -30 -16 -38 -24 -34 -34 41 -62 77 -29 15 14 20 14 46 1 56 -29 113 -1 86
42 -7 11 -8 21 -3 23 5 2 11 32 13 67 2 38 8 66 15 69 17 5 15 22 -3 22 -12 0
-14 30 -13 200 1 155 4 200 14 200 7 0 14 -5 16 -10z"/>
<path d="M1030 705 c-14 -8 -51 -14 -84 -15 l-58 0 6 -32 c11 -56 19 -411 12
-490 -13 -138 -57 -146 -87 -17 -37 164 -52 271 -55 403 -2 77 -6 141 -9 144
-2 2 -25 -1 -50 -7 -24 -6 -63 -8 -85 -5 -40 6 -47 1 -40 -31 10 -52 16 -153
8 -167 -5 -10 -26 -27 -48 -38 -31 -16 -41 -28 -50 -61 -15 -56 -10 -93 15
-97 38 -7 45 -21 39 -76 -3 -28 -15 -71 -25 -95 -27 -63 -25 -81 10 -81 16 0
43 -3 60 -6 28 -6 31 -4 31 18 0 13 -5 29 -11 35 -6 6 -11 32 -12 59 l-2 48
44 8 c24 4 48 5 52 2 12 -7 11 -96 0 -127 -14 -35 0 -48 50 -47 156 4 208 3
310 -6 61 -5 68 -4 97 21 17 14 34 36 38 48 3 12 16 42 27 67 19 39 21 64 22
200 0 140 -2 162 -24 222 -25 70 -71 128 -100 128 -9 0 -25 2 -36 5 -11 3 -31
-2 -45 -10z m74 -73 c25 -83 33 -348 15 -465 -14 -82 -22 -97 -54 -97 -43 0
-50 43 -48 284 1 120 4 234 8 253 9 49 66 67 79 25z"/>
<path d="M7190 705 c-92 -8 -115 -13 -113 -25 1 -8 8 -49 17 -92 38 -187 7
-555 -44 -523 -35 22 -94 353 -95 535 l0 94 -93 1 -94 0 6 -35 c4 -19 9 -63
12 -98 6 -57 4 -66 -17 -88 -12 -13 -28 -24 -36 -24 -19 0 -42 -40 -51 -91
-11 -56 -6 -69 23 -69 39 0 49 -22 35 -82 -6 -29 -15 -62 -20 -73 -9 -22 -24
-74 -24 -90 -1 -5 27 -11 62 -12 35 -1 62 3 62 8 0 6 -7 24 -16 40 -8 17 -14
48 -12 72 3 39 5 42 42 49 57 12 70 -3 62 -72 -13 -111 -13 -105 14 -103 91 8
269 8 289 1 40 -15 46 3 27 84 -22 93 -19 201 6 206 24 5 48 -47 48 -105 0
-55 26 -145 54 -185 14 -21 27 -28 51 -28 40 0 60 22 76 83 15 60 1 98 -33 94
-19 -2 -24 6 -38 58 -9 33 -24 75 -34 94 -18 33 -18 35 0 48 10 7 21 13 25 13
4 0 17 15 28 34 16 26 21 50 21 105 0 79 -16 122 -58 156 -38 29 -55 31 -182
20z m100 -65 c11 -7 16 -32 18 -92 3 -105 -9 -133 -58 -133 l-35 0 1 92 c1
118 26 164 74 133z"/>
<path d="M1477 698 c-22 -12 -21 -27 2 -52 14 -16 21 -48 29 -123 12 -113 23
-144 49 -137 14 4 27 -12 58 -71 22 -42 53 -100 68 -128 20 -36 26 -60 23 -79
-3 -16 -9 -42 -12 -58 l-6 -31 66 3 c74 3 85 14 58 56 -15 23 -17 55 -17 272
0 213 3 249 18 279 30 60 25 71 -38 71 -51 0 -55 -2 -55 -23 0 -13 5 -28 10
-33 12 -12 40 -170 40 -228 0 -34 -2 -37 -16 -25 -15 12 -58 75 -102 150 -16
27 -22 53 -22 99 l0 63 -38 -7 c-21 -3 -52 -2 -69 3 -17 5 -37 5 -46 -1z"/>
<path d="M2297 679 c-27 -27 -36 -46 -42 -86 -7 -51 -2 -73 15 -73 5 0 12 9
15 20 9 29 80 29 95 0 13 -24 12 -288 -2 -395 -16 -134 -24 -120 66 -120 91 0
96 5 72 68 -13 34 -16 82 -16 235 l0 192 25 10 c24 9 65 75 65 105 0 28 21 15
37 -22 19 -44 23 -211 9 -389 l-8 -112 37 -40 c83 -93 197 -77 267 36 20 33
20 35 3 109 -15 63 -17 100 -11 218 6 131 26 236 44 235 4 0 16 -13 27 -27 15
-22 20 -51 25 -143 10 -173 2 -364 -16 -410 -23 -57 -17 -64 58 -66 37 -1 82
-8 101 -15 30 -11 39 -10 68 7 19 11 45 40 59 65 22 40 25 55 25 154 0 103 -2
113 -28 153 -36 56 -65 57 -96 2 -32 -58 -26 -118 14 -140 34 -19 55 -53 55
-92 0 -94 -78 -120 -115 -39 -15 34 -17 67 -13 268 2 172 6 234 16 246 8 9 12
26 10 38 -3 22 -6 23 -160 26 -87 2 -158 -1 -158 -6 0 -5 12 -35 26 -67 26
-57 27 -67 28 -244 1 -197 -9 -263 -45 -296 -15 -14 -26 -16 -46 -8 -22 7 -31
21 -46 69 -16 52 -18 84 -14 235 3 147 7 185 26 239 12 35 20 66 17 68 -3 3
-69 7 -148 10 -79 2 -180 6 -225 10 l-82 6 -34 -34z"/>
<path d="M3768 694 c-30 -16 -52 -51 -62 -100 -6 -27 -3 -35 20 -53 46 -36 55
-30 70 51 7 43 24 61 48 52 34 -13 3 -200 -54 -329 -5 -11 -25 -69 -45 -130
-20 -60 -44 -118 -53 -128 -24 -27 0 -38 68 -31 30 4 82 1 114 -5 89 -16 129
-3 156 55 32 66 37 160 11 202 -44 69 -105 56 -75 -16 20 -48 -2 -174 -32
-186 -45 -17 -79 45 -59 108 7 23 22 73 34 111 30 102 105 316 120 343 21 39
9 50 -53 47 -32 -2 -66 3 -82 11 -34 18 -92 17 -126 -2z"/>
<path d="M4159 687 c-31 -26 -59 -77 -59 -107 0 -21 56 -63 75 -57 5 2 13 26
17 53 10 69 50 97 69 47 11 -31 -28 -200 -80 -340 -62 -168 -82 -235 -77 -249
5 -12 17 -14 64 -8 32 3 82 1 113 -5 70 -14 105 -4 143 43 26 32 31 47 34 108
4 56 0 79 -13 105 -17 32 -58 53 -72 39 -4 -4 -6 -47 -4 -97 3 -106 -12 -142
-57 -137 -27 3 -27 4 -26 78 1 76 10 113 62 255 16 44 37 105 47 135 9 30 24
70 32 88 19 44 10 54 -43 46 -30 -4 -56 -1 -84 10 -57 23 -109 20 -141 -7z"/>
<path d="M5220 700 c-14 -4 -45 -5 -69 -2 l-44 5 8 -39 c4 -21 9 -77 12 -123
5 -92 -6 -121 -32 -84 -9 13 -22 19 -34 16 -13 -3 -20 2 -25 21 -8 31 3 134
15 142 5 3 9 18 9 33 l0 27 -80 0 c-91 -1 -96 -6 -75 -66 19 -54 29 -319 17
-443 -7 -76 -14 -103 -29 -118 -19 -20 -19 -19 -40 28 -34 76 -88 426 -80 516
2 34 3 67 1 72 -6 16 -177 10 -182 -5 -3 -7 1 -38 8 -69 7 -31 12 -68 12 -83
-1 -36 -30 -78 -53 -78 -32 0 -60 -57 -57 -115 3 -42 6 -50 23 -50 36 0 43
-11 35 -62 -5 -26 -18 -77 -30 -112 -11 -35 -19 -66 -16 -69 3 -3 33 -6 66 -8
65 -3 70 2 45 46 -8 14 -14 46 -15 71 l0 46 43 6 c23 3 45 2 50 -2 7 -7 10
-104 5 -146 -3 -23 0 -23 220 -28 81 -1 133 2 136 8 2 6 -3 26 -11 45 -8 19
-17 76 -20 126 -6 99 1 115 40 96 12 -6 30 -13 40 -16 14 -5 17 -18 17 -89 0
-51 -6 -98 -15 -119 -19 -46 -7 -58 46 -44 28 7 48 7 69 -1 43 -16 55 3 36 53
-35 90 -37 496 -2 562 13 26 15 37 5 48 -13 15 -13 15 -49 4z"/>
<path d="M6161 693 c-14 -10 -14 -15 2 -48 10 -20 23 -84 29 -141 6 -57 13
-102 15 -100 3 2 13 55 23 116 11 62 24 118 31 126 40 48 59 -23 66 -251 4
-135 2 -186 -11 -249 -9 -44 -19 -83 -22 -88 -11 -17 18 -38 42 -32 13 3 61 1
107 -6 103 -16 141 -6 176 45 21 31 24 47 25 134 1 97 0 100 -31 139 -18 23
-33 46 -33 53 0 6 13 26 28 44 38 42 43 128 12 197 -29 66 -58 82 -134 73 -74
-8 -137 -10 -235 -4 -47 2 -80 0 -90 -8z m345 -47 c16 -12 19 -27 19 -106 0
-84 -2 -93 -23 -110 -16 -14 -29 -17 -45 -11 -21 8 -22 14 -22 111 0 89 2 103
19 116 24 17 28 17 52 0z m14 -331 c15 -32 20 -159 7 -207 -9 -35 -51 -48 -75
-24 -13 13 -18 41 -20 126 -5 133 -2 142 40 138 25 -2 36 -10 48 -33z"/>
<path d="M7966 703 l-68 -4 6 -32 c18 -97 25 -174 25 -272 0 -140 -15 -315
-29 -329 -18 -18 -43 7 -58 55 -32 106 -66 374 -63 498 l2 83 -38 -7 c-21 -4
-64 -7 -97 -6 l-59 2 8 -38 c5 -21 9 -69 9 -108 l1 -70 -42 -23 c-32 -18 -45
-32 -54 -61 -17 -57 -9 -84 30 -101 32 -14 33 -16 27 -57 -3 -23 -15 -69 -26
-102 -31 -94 -30 -96 40 -97 66 -1 75 10 44 54 -9 14 -14 38 -12 64 3 42 4 43
47 50 24 4 48 5 52 2 13 -8 11 -80 -3 -126 -15 -50 -4 -61 45 -47 27 7 48 7
71 -1 24 -8 53 -8 103 0 48 8 77 8 97 0 19 -7 33 -7 47 1 18 9 19 12 6 27 -44
49 -62 195 -29 225 26 24 31 22 49 -20 20 -49 32 -148 22 -190 -4 -20 -3 -36
3 -39 14 -9 147 -9 155 0 4 4 2 20 -5 36 -40 100 -62 185 -62 243 0 55 -2 60
-45 101 -26 25 -45 53 -45 66 0 30 27 77 51 91 17 9 25 7 45 -12 13 -12 24
-33 24 -46 0 -18 5 -24 18 -21 14 3 17 17 20 90 2 77 0 90 -18 108 -45 45 -97
11 -144 -92 -14 -31 -26 -62 -26 -68 0 -6 -10 -32 -22 -58 l-23 -47 -3 64 c-2
36 4 92 13 128 17 67 15 94 -7 91 -7 -1 -44 -4 -82 -5z"/>
<path d="M165 690 c-11 -4 -46 -5 -79 -3 l-59 4 7 -28 c24 -96 28 -152 22
-308 -5 -162 -20 -249 -47 -279 -5 -6 -9 -21 -9 -33 0 -23 3 -24 57 -21 55 3
58 4 57 28 -1 14 -9 50 -18 80 -17 60 -23 280 -7 280 15 0 39 -45 46 -86 4
-21 13 -61 21 -88 8 -27 14 -68 15 -90 0 -23 4 -50 9 -61 7 -19 9 -18 19 7 6
16 16 58 22 95 20 124 52 244 61 235 5 -5 12 -70 15 -145 5 -110 3 -145 -11
-185 -9 -28 -16 -55 -16 -59 0 -12 171 -11 188 0 11 7 10 12 -2 26 -35 39 -46
91 -58 283 -10 168 -9 202 4 262 9 39 14 75 12 81 -3 7 -31 11 -77 10 l-72 -1
-6 -102 c-4 -80 -9 -106 -24 -122 l-19 -21 -9 23 c-5 13 -10 67 -11 121 -2 53
-5 99 -7 101 -2 2 -13 0 -24 -4z"/>
<path d="M1292 681 c-3 -8 0 -40 6 -71 7 -31 15 -123 18 -206 5 -118 3 -167
-11 -239 -24 -130 -24 -130 5 -128 14 1 71 -3 126 -9 56 -6 114 -8 128 -4 30
7 34 34 11 70 -8 12 -19 56 -23 96 -9 94 -28 103 -37 18 -10 -90 -23 -135 -42
-142 -37 -15 -53 70 -53 288 0 120 5 198 16 251 9 42 13 80 9 83 -4 4 -38 7
-77 7 -51 0 -72 -4 -76 -14z"/>
<path d="M1964 688 c-3 -4 -2 -48 2 -98 7 -86 6 -92 -16 -115 -13 -14 -29 -25
-37 -25 -26 0 -44 -46 -41 -106 3 -55 5 -59 28 -59 22 0 25 -5 28 -38 3 -37
-29 -149 -50 -174 -21 -26 -1 -43 47 -41 25 0 48 -2 52 -5 3 -4 12 -2 19 4 11
9 11 16 -2 41 -9 17 -14 48 -12 76 3 45 4 46 42 54 52 11 57 1 54 -92 l-3 -75
55 -2 c30 -1 61 -3 68 -5 30 -7 36 27 14 83 -33 87 -71 347 -75 513 l-2 69
-83 1 c-46 1 -86 -2 -88 -6z"/>
<path d="M3492 682 c-2 -7 1 -32 7 -54 21 -70 26 -379 7 -486 -9 -50 -16 -96
-16 -100 0 -10 155 -10 164 -1 4 3 -1 33 -11 65 -25 84 -30 368 -8 471 25 125
28 121 -61 120 -54 -1 -78 -5 -82 -15z"/>
<path d="M5473 683 c-4 -9 -1 -30 6 -47 7 -17 15 -96 18 -176 6 -148 -2 -225
-33 -330 -9 -30 -18 -67 -21 -82 -5 -28 -5 -28 50 -28 67 0 73 10 46 79 -15
40 -19 77 -19 170 0 116 4 151 19 151 8 0 35 -108 68 -267 9 -46 19 -83 22
-83 4 0 14 46 24 103 17 97 54 247 63 256 14 14 19 -27 22 -159 3 -120 1 -153
-12 -178 -33 -64 -26 -70 71 -68 97 2 109 12 79 59 -31 47 -48 197 -42 371 3
88 8 180 12 202 l6 41 -71 -2 c-39 -1 -74 -4 -76 -7 -3 -3 -7 -45 -8 -94 -2
-62 -8 -99 -21 -122 -9 -19 -20 -31 -23 -29 -12 13 -32 166 -27 206 l7 44 -44
-7 c-24 -3 -59 -2 -77 3 -27 8 -34 7 -39 -6z"/>
<path d="M5916 683 c-3 -7 2 -29 11 -50 13 -30 16 -75 16 -223 0 -102 -5 -201
-10 -221 -13 -45 2 -85 50 -133 61 -60 149 -60 210 0 57 57 62 80 42 179 -10
47 -22 85 -27 85 -4 0 -8 -6 -8 -12 0 -46 -21 -179 -31 -201 -13 -29 -39 -42
-68 -32 -64 20 -79 359 -25 554 8 29 13 56 10 59 -3 3 -42 6 -86 7 -56 0 -81
-3 -84 -12z"/>
</g>
</svg>
